<svg xmlns="http://www.w3.org/2000/svg" x="64" y="64" viewBox="0 0 512.002 512.002"><linearGradient id="a" gradientUnits="userSpaceOnUse" x1="236.938" y1="458.428" x2="236.938" y2="-71.182" gradientTransform="matrix(1.0667 0 0 -1.0667 3.267 557.535)"><stop offset="0" stop-color="#ffcf95"/><stop offset=".427" stop-color="#ffc954"/><stop offset="1" stop-color="#ffc200"/></linearGradient><path d="M274.84 23.212l67.722 137.218 151.429 22.004c17.232 2.503 24.112 23.68 11.644 35.835L396.058 325.077l25.867 150.817c2.944 17.162-15.07 30.25-30.482 22.147L256 426.835l-135.442 71.206c-15.412 8.102-33.426-4.985-30.482-22.147l25.867-150.817L6.367 218.268c-12.469-12.155-5.588-33.33 11.644-35.835l151.429-22.004 67.721-137.217c7.707-15.615 29.972-15.615 37.679 0z" fill="url(#a)"/><linearGradient id="b" gradientUnits="userSpaceOnUse" x1="361.338" y1="390.131" x2="201.238" y2="390.131" gradientTransform="matrix(1.0667 0 0 -1.0667 3.267 557.535)"><stop offset="0" stop-color="#ffc200" stop-opacity="0"/><stop offset=".203" stop-color="#fb0" stop-opacity=".203"/><stop offset=".499" stop-color="#ffa700" stop-opacity=".499"/><stop offset=".852" stop-color="#f80" stop-opacity=".852"/><stop offset="1" stop-color="#ff7800"/></linearGradient><path d="M342.56 160.43L274.84 23.212c-3.853-7.807-11.346-11.711-18.839-11.711V271.29l86.559-110.86z" fill="url(#b)"/><linearGradient id="c" gradientUnits="userSpaceOnUse" x1="388.687" y1="144.838" x2="346.287" y2="353.638" gradientTransform="matrix(1.0667 0 0 -1.0667 3.267 557.535)"><stop offset="0" stop-color="#ffc200" stop-opacity="0"/><stop offset=".203" stop-color="#fb0" stop-opacity=".203"/><stop offset=".499" stop-color="#ffa700" stop-opacity=".499"/><stop offset=".852" stop-color="#f80" stop-opacity=".852"/><stop offset="1" stop-color="#ff7800"/></linearGradient><path d="M396.058 325.077l109.575-106.81c6.151-5.996 7.586-14.185 5.399-21.247L256 271.289l140.058 53.788z" fill="url(#c)"/><linearGradient id="d" gradientUnits="userSpaceOnUse" x1="183.098" y1="35.109" x2="349.158" y2="201.169" gradientTransform="matrix(1.0667 0 0 -1.0667 3.267 557.535)"><stop offset="0" stop-color="#ffc200" stop-opacity="0"/><stop offset=".203" stop-color="#fb0" stop-opacity=".203"/><stop offset=".499" stop-color="#ffa700" stop-opacity=".499"/><stop offset=".852" stop-color="#f80" stop-opacity=".852"/><stop offset="1" stop-color="#ff7800"/></linearGradient><path d="M413.63 496.393L256 271.289v155.546l135.442 71.206c7.734 4.066 16.121 2.794 22.188-1.648z" fill="url(#d)"/><linearGradient id="e" gradientUnits="userSpaceOnUse" x1="64.678" y1="245.108" x2="187.078" y2="142.708" gradientTransform="matrix(1.0667 0 0 -1.0667 3.267 557.535)"><stop offset="0" stop-color="#ffc200" stop-opacity="0"/><stop offset=".203" stop-color="#fb0" stop-opacity=".203"/><stop offset=".499" stop-color="#ffa700" stop-opacity=".499"/><stop offset=".852" stop-color="#f80" stop-opacity=".852"/><stop offset="1" stop-color="#ff7800"/></linearGradient><path d="M256 271.289l-140.058 53.788-25.866 150.817c-1.467 8.55 2.271 16.087 8.294 20.499L256 271.289z" fill="url(#e)"/><linearGradient id="f" gradientUnits="userSpaceOnUse" x1="156.433" y1="414.02" x2="106.833" y2="273.22" gradientTransform="matrix(1.0667 0 0 -1.0667 3.267 557.535)"><stop offset="0" stop-color="#ffc200" stop-opacity="0"/><stop offset=".203" stop-color="#fb0" stop-opacity=".203"/><stop offset=".499" stop-color="#ffa700" stop-opacity=".499"/><stop offset=".852" stop-color="#f80" stop-opacity=".852"/><stop offset="1" stop-color="#ff7800"/></linearGradient><path d="M.968 197.021L256 271.289l-86.56-110.86-151.429 22.005C9.28 183.702 3.214 189.767.968 197.021z" fill="url(#f)"/><linearGradient id="g" gradientUnits="userSpaceOnUse" x1="343.14" y1="399.316" x2="-21.26" y2="244.116" gradientTransform="matrix(1.0667 0 0 -1.0667 3.267 557.535)"><stop offset="0" stop-color="#ffc200" stop-opacity="0"/><stop offset=".203" stop-color="#fb0" stop-opacity=".203"/><stop offset=".499" stop-color="#ffa700" stop-opacity=".499"/><stop offset=".852" stop-color="#f80" stop-opacity=".852"/><stop offset="1" stop-color="#ff7800"/></linearGradient><path d="M115.943 325.077L6.367 218.268c-6.151-5.996-7.586-14.185-5.399-21.247L256 271.289l-140.057 53.788z" fill="url(#g)"/></svg>